<svg xmlns="http://www.w3.org/2000/svg" viewBox="0 0 95.66 57.86"><defs><style>.cls-1{fill:#231f20;}</style></defs><g id="Layer_2" data-name="Layer 2"><g id="Layer_1-2" data-name="Layer 1"><polygon class="cls-1" points="0 0 51.33 0 51.33 57.86 0 57.86 0 54.54 14.92 44.9 14.92 13.63 0 3.35 0 0"/><path class="cls-1" d="M53.82,3.07V0S95.66-.76,95.66,15.1c0,7.66-9,12-22,13.9,10.8,1.72,22,5.47,22,13.68,0,11.16-19.07,15.18-41.84,15.18V55.25s12.5-4.72,12.5-12.57c0-7.68-11.33-11.63-12.5-12V27.58h.24c1.69-.69,12.26-5.26,12.26-12.48C66.32,7.43,59.33,3.49,53.82,3.07Z"/></g></g></svg>