<svg xmlns="http://www.w3.org/2000/svg" viewBox="0 0 135 135"><defs><style>.cls-1{fill:#231f20;}.cls-2{fill:none;}</style></defs><g id="Layer_2" data-name="Layer 2"><g id="Layer_1-2" data-name="Layer 1"><polygon class="cls-1" points="7.17 26.07 58.5 26.07 58.5 83.93 7.17 83.93 7.17 80.61 22.09 70.97 22.09 39.7 7.17 29.42 7.17 26.07"/><path class="cls-1" d="M61,29.14V26.07s41.83-.76,41.83,15.1c0,7.66-9,12-22,13.9,10.8,1.72,22,5.47,22,13.67,0,11.17-19.07,15.19-41.83,15.19V81.32s12.49-4.73,12.49-12.58c0-7.67-11.33-11.62-12.49-12V53.65h.23c1.69-.69,12.26-5.26,12.26-12.48C73.49,33.5,66.5,29.56,61,29.14Z"/><rect class="cls-2" width="135" height="135"/></g></g></svg>