<svg xmlns="http://www.w3.org/2000/svg" viewBox="0 0 135 135"><defs><style>.cls-1{fill:#231f20;fill-rule:evenodd;}.cls-2{fill:none;}</style></defs><g id="Layer_2" data-name="Layer 2"><g id="Layer_1-2" data-name="Layer 1"><path class="cls-1" d="M61.57,57.86V55c-26.35-11.75-13-24.34-7.88-28.93v-1.8c-21.6,0-43.58,4.68-43.58,15.52S30.7,56.53,30.7,56.53,10.11,58,10.11,69.6c0,15.84,43.58,16.13,43.58,16.13V83.49C36.89,59.55,61.57,57.86,61.57,57.86ZM64,44.07H99.55s7.07-19.8-43.52-19.8v1.65A23.08,23.08,0,0,1,64,44.07Zm0,21.86c0,10.57-5.63,15.22-8,17.56v2.24c50.59,0,43.52-19.8,43.52-19.8Z"/><rect class="cls-2" width="135" height="135"/></g></g></svg>