<svg xmlns="http://www.w3.org/2000/svg" viewBox="0 0 135 135"><defs><style>.cls-1{fill:#231f20;}.cls-2{fill:none;}</style></defs><g id="Layer_2" data-name="Layer 2"><g id="Layer_1-2" data-name="Layer 1"><polygon class="cls-1" points="5.37 26.07 56.7 26.07 56.7 29.42 56.7 39.7 56.7 70.97 72.33 80.61 72.33 83.93 5.37 83.93 5.37 80.61 20.28 70.97 20.28 39.7 5.37 29.42 5.37 26.07"/><path class="cls-1" d="M90.83,55c6.71-2.54,10.84-7.37,10.84-12.82,0-16.66-41.84-15.85-41.84-15.85v3.22c1.17.42,12.5,4.57,12.5,12.63,0,8.24-12.5,13.2-12.5,13.2v3.21l26.61,22v3.32h40.4V80.61Z"/><rect class="cls-2" width="135" height="135"/></g></g></svg>